<svg viewBox="0 0 38 35" fill="none" xmlns="http://www.w3.org/2000/svg">
    <path d="M37.5 19.1971C37.5 22.7345 31.62 26.6152 25.3365 29.0304C19.8952 31.1219 14.2059 32 11.1051 32C4.42347 32 0.122018 30.1015 0.000780829 23.3513C-0.0185344 22.2759 0.32116 20.8489 0.946304 19.5403C1.53267 18.3129 2.52725 17.0433 3.22531 16.3272C5.04032 14.4652 6.76302 13.4046 8.82586 12.3667C11.918 10.811 17.2921 10.125 19.7117 10.125C24.2286 10.125 29.2399 11.698 31.2038 12.7653C33.4828 14.0038 37.5 16.2081 37.5 19.1971Z"
          fill="#181C1D"/>
    <path d="M30.3156 22.0844C29.4394 23.7038 27.6284 23.9697 25.9851 24.0441C26.67 21.4711 29.1421 22.5825 30.057 19.905C28.5526 20.3217 28.3148 20.5038 26.8106 20.9209C26.3248 21.0556 25.3163 21.0825 24.6493 20.9209C24.3081 20.8383 24.0562 20.7063 24.0094 20.5141C21.2953 21.6495 14.6006 21.8967 13.4692 24.035C12.4342 25.9924 10.3825 27.5534 8.40303 28.2433C4.93045 29.4534 4.36192 32.7656 1.04581 33.875C0.729216 31.608 2.13184 32.281 2.85189 30.8817C3.50032 29.6196 4.04301 27.8843 4.9477 26.8039C6.35263 25.1266 8.51079 24.9207 8.51079 22.1471C8.51079 20.0843 7.94424 19.4218 10.0888 18.1452C12.8891 16.4777 16.5639 15.9088 19.6449 14.9612C23.8064 13.6816 24.3925 10.4052 25.4769 6.62501C24.5317 6.60039 23.7839 6.19767 23.2322 5.41784C24.1502 5.3602 25.0037 5.36558 25.9214 5.30827C25.9214 5.30827 26.4806 4.85772 26.6751 4.7586C26.821 4.68426 27.4532 4.70904 27.9152 4.8825C28.3646 5.05124 28.7159 5.23629 28.9607 5.30383C29.3741 5.41783 34.2129 6.6988 31.1689 7.58277C28.0544 8.48728 28.4857 8.68816 28.0643 11.9457C27.8011 13.9781 27.9102 17.0664 26.4751 18.6975C27.0121 18.6089 32.8494 17.4021 32.1996 18.6018C32.3418 18.988 30.6435 21.7077 30.3156 22.0844Z"
          fill="#F7BF7B" stroke="#482A00" stroke-width="0.375" stroke-linecap="round" stroke-linejoin="round"/>
    <path d="M28.815 5.25443C28.7863 5.24401 28.7569 5.2311 28.7269 5.21585C28.3872 5.07032 27.1586 4.57452 26.6996 4.80839C26.3914 4.96544 26.0306 5.19592 26.0306 5.19592C24.9436 4.56436 23.5389 3.86425 22.654 3.17597C22.1383 2.64386 19.997 0.125 21.2534 0.125C21.2534 0.125 23.5393 3.36856 23.5387 2.35519C23.5387 2.16309 23.0421 0.694756 23.5387 0.694756C24.4487 0.694756 24.1582 3.59818 25.5714 3.59818C26.2759 3.59818 24.6468 1.02211 25.3516 1.02211C25.7378 1.02211 27.6391 4.66271 28.7269 5.21585C28.7832 5.23994 28.815 5.25443 28.815 5.25443Z"
          fill="#482A00" stroke="#482A00" stroke-width="0.25" stroke-linecap="round" stroke-linejoin="round"/>
</svg>
