<svg width="354" height="354" viewBox="0 0 354 354" fill="none" xmlns="http://www.w3.org/2000/svg">
<path d="M66.32 174.22V217.76C56.63 212.39 37 201.52 37 201.52V157.99C37 157.99 56.63 168.86 66.32 174.22Z" fill="white"/>
<path d="M113.09 200.11V243.65C98.5202 235.58 96.7802 234.62 83.7402 227.4V183.86C96.7802 191.08 98.5202 192.04 113.09 200.11Z" fill="white"/>
<path d="M160.35 226.68V270.22C145.78 262.15 144.04 261.19 131 253.97V210.43C144.04 217.65 145.78 218.61 160.35 226.68Z" fill="white"/>
<path d="M317.74 159.22V201.52L296.48 213.29V191.33L259.04 212.06V234.02L237.78 245.78V223.83L198.63 245.5V267.46L177.37 279.23L177.28 279.18V235.75L317.74 159.22Z" fill="white"/>
<path d="M216.15 75L213.66 100.49L207.1 96.78L207.08 96.77L66.32 173.45V174.22C56.63 168.86 37 157.99 37 157.99C37 157.99 52.96 149.15 58.58 146.04L178.26 80.84L169.22 75.85L216.15 75Z" fill="#FFCD34"/>
<path d="M309.86 128L307.37 153.49L300.81 149.78L300.53 149.63L160.35 226V226.68C145.78 218.61 144.04 217.65 131 210.43V210.36L271.71 133.7L262.93 128.85L309.86 128Z" fill="#FFCD34"/>
<path d="M262.6 101.43L260.11 126.92L253.55 123.21L253.27 123.06L113.09 199.43V200.11C98.5202 192.04 96.7802 191.08 83.7402 183.86V183.79L224.45 107.13L215.67 102.28L262.6 101.43Z" fill="#FFCD34"/>
<path d="M177 0C274.754 0 354 79.2456 354 177C354 274.754 274.754 354 177 354C79.2456 354 0 274.754 0 177C0 79.2456 79.2456 0 177 0ZM177.28 235.75V279.18L177.37 279.23L198.63 267.46V245.5L237.78 223.83V245.78L259.04 234.02V212.06L296.479 191.33V213.29L317.74 201.52V159.22L177.28 235.75ZM262.93 128.85L271.71 133.7L131 210.36V253.97C144.04 261.19 145.78 262.15 160.35 270.22V226L300.53 149.63L300.81 149.78L307.37 153.49L309.86 128L262.93 128.85ZM215.67 102.28L224.45 107.13L83.7402 183.79V227.4C96.78 234.62 98.52 235.58 113.09 243.65V199.43L253.271 123.06L253.55 123.21L260.11 126.92L262.601 101.43L215.67 102.28ZM169.22 75.8496L178.26 80.8398L58.5801 146.04C52.9601 149.15 37 157.99 37 157.99V201.52C37 201.52 56.6303 212.39 66.3203 217.76V173.45L207.08 96.7695L207.1 96.7803L213.66 100.49L216.15 75L169.22 75.8496Z" fill="#763F98"/>
</svg>
