<svg width="75" height="76" viewBox="0 0 75 76" fill="none" xmlns="http://www.w3.org/2000/svg">
    <g filter="url(#filter0_d_172_6)">
        <path d="M38.5789 0.61673C38.9145 1.13081 38.3408 7.2005 40.1745 10.6619C43.7191 17.3517 48.4859 24.4353 51.0489 30.627C57.0774 45.1912 58.4089 59.0041 57.8655 69.3833C58.1684 68.658 61.3008 64.7969 62.1865 59.418C63.4752 51.5848 62.0132 40.339 56.8192 29.2791C54.0871 23.4618 48.7239 13.685 44.0514 7.20639C41.6558 3.88464 39.2678 1.24103 38.5789 0.61673Z"
              fill="#838383"/>
        <path d="M69.766 23.323C67.2493 26.5008 58.8143 35.1712 58.5569 26.7272C59.7723 26.4461 63.7392 23.7605 66.123 21.2599C69.0031 18.2385 71.9404 15.2668 72.0767 14.0325C73.1399 17.971 72.1381 20.326 69.7652 23.3221L69.766 23.323Z"
              fill="#838383"/>
        <path d="M31.3282 8.83529C29.5626 12.8655 27.977 17.0168 27.3335 20.0004C25.9297 26.505 25.1129 29.2118 23.4474 34.2718C20.744 42.4828 12.8347 58.6305 6.93066 70C8.08304 69.878 12.685 65.1739 13.7322 64.0776C15.523 62.1996 25.0667 47.6699 28.6289 35.9226C31.4829 26.5126 33.7927 15.2163 37.6965 0C35.9873 1.4051 32.8616 5.33433 31.3282 8.83529Z"
              fill="#838383"/>
        <path d="M47.0012 30.3198C41.4277 30.3712 40.0567 30.3829 34.4824 30.4334C33.6126 30.441 32.6058 33.3749 33.3586 33.8393C35.4791 35.1527 37.0226 36.1615 41.2452 35.8864C44.6527 35.6651 45.1994 35.0156 47.0054 33.8393C47.7464 33.3564 47.8709 30.3123 47.002 30.319L47.0012 30.3198Z"
              fill="#838383"/>
        <path d="M11.0397 24.7962C1.31687 14.4767 2.1782 0.734523 2.91084 0.580551C3.48787 0.459393 2.19334 10.11 10.4913 18.3866C16.2035 24.0836 19.5546 25.2531 22.1361 27.7478C23.2439 28.8171 18.8758 30.9913 17.583 30.1179C15.809 28.9198 12.7237 26.5833 11.0405 24.7962H11.0397Z"
              fill="#838383"/>
    </g>
    <defs>
        <filter id="filter0_d_172_6" x="0" y="0" width="75" height="75.5" filterUnits="userSpaceOnUse"
                color-interpolation-filters="sRGB">
            <feFlood flood-opacity="0" result="BackgroundImageFix"/>
            <feColorMatrix in="SourceAlpha" type="matrix" values="0 0 0 0 0 0 0 0 0 0 0 0 0 0 0 0 0 0 127 0"
                           result="hardAlpha"/>
            <feOffset dy="3"/>
            <feGaussianBlur stdDeviation="1.25"/>
            <feComposite in2="hardAlpha" operator="out"/>
            <feColorMatrix type="matrix" values="0 0 0 0 0 0 0 0 0 0 0 0 0 0 0 0 0 0 0.25 0"/>
            <feBlend mode="normal" in2="BackgroundImageFix" result="effect1_dropShadow_172_6"/>
            <feBlend mode="normal" in="SourceGraphic" in2="effect1_dropShadow_172_6" result="shape"/>
        </filter>
    </defs>
</svg>
