<svg width="271" height="360" viewBox="0 0 271 360" fill="none" xmlns="http://www.w3.org/2000/svg">
<g clip-path="url(#clip0_143_378)">
<path d="M216.765 161.395L189.835 187.289L166.809 163.342L193.74 137.448L216.765 161.395Z" fill="#2D2D2D"/>
<path d="M47.9045 173.039L63.0552 172.15L64.6553 199.421L49.5047 200.31L47.9045 173.039Z" fill="#2D2D2D"/>
<path d="M25.2152 271.233C15.772 271.787 7.53102 262.256 6.80861 249.944C6.0862 237.631 13.1559 227.201 22.5992 226.647C32.0425 226.093 40.2834 235.625 41.0058 247.937C41.7282 260.249 34.6585 270.679 25.2152 271.233Z" fill="#AFAFAF"/>
<path d="M22.5994 226.647C14.3195 227.133 7.76021 233.424 6.64307 241.332L40.5108 246.499C40.7078 245.282 40.7764 244.025 40.7012 242.743C40.1471 233.299 32.0427 226.093 22.5994 226.647Z" fill="#2D2D2D"/>
<path d="M4.44434 230.526C18.9968 188.492 42.3192 173.391 52.1613 171.095C47.8102 191.16 51.6084 201.543 54.0514 204.226L42.11 239.772L4.44434 230.526Z" fill="#AFAFAF"/>
<path d="M14.115 225.379C12.2955 224.466 14.1721 217.045 18.3065 208.804C22.4409 200.563 27.2675 194.622 29.0869 195.535C30.9064 196.448 29.0298 203.869 24.8954 212.11C20.761 220.351 15.9344 226.292 14.115 225.379Z" fill="#C4C4C4"/>
<path d="M130.165 273.763C169.492 271.455 199.559 238.673 197.322 200.541C195.084 162.409 161.39 133.368 122.063 135.676C82.7358 137.983 52.6687 170.766 54.9061 208.897C57.1435 247.029 90.838 276.07 130.165 273.763Z" fill="#A8A8A8"/>
<path d="M185.901 205.772C189.835 205.541 193.689 205.748 197.413 206.348C196.555 238.278 173.155 265.402 141.415 272.233C139.564 267.62 138.418 262.652 138.112 257.442C136.534 230.547 157.93 207.413 185.901 205.772ZM65.5621 212.833C93.5332 211.192 117.488 231.665 119.066 258.56C119.367 263.696 118.829 268.694 117.569 273.432C85.7261 269.854 59.8753 245.744 55.4565 214.41C58.702 213.574 62.0813 213.037 65.5621 212.833Z" fill="#6B6B6B"/>
<path d="M132.03 153.64L114.698 154.657C103.396 155.32 94.771 165.02 95.4342 176.323L96.4511 193.655C97.1143 204.957 106.814 213.582 118.117 212.919L135.449 211.902C146.751 211.239 155.376 201.539 154.713 190.236L153.696 172.904C153.033 161.602 143.333 152.977 132.03 153.64Z" fill="#60EFFF" stroke="#848484" stroke-width="15"/>
<path d="M16.7679 101.426L16.7679 101.426C15.102 101.613 13.903 103.115 14.0899 104.781L16.1692 123.311C16.3561 124.977 17.8582 126.175 19.5241 125.989C21.19 125.802 22.3889 124.3 22.202 122.634L20.1228 104.104C19.9358 102.438 18.4338 101.239 16.7679 101.426Z" fill="#60EFFF"/>
<path d="M16.7727 105.353C15.8914 97.4992 21.5436 90.4181 29.3971 89.5369L34.4744 134.783L33.1731 134.929C26.0382 135.73 19.6051 130.595 18.8045 123.46L16.7727 105.353Z" fill="#8F8F8F"/>
<path d="M203.354 80.4889L203.354 80.4889C205.02 80.3019 206.522 81.5009 206.709 83.1668L208.788 101.696C208.975 103.362 207.776 104.864 206.11 105.051C204.444 105.238 202.942 104.039 202.755 102.373L200.676 83.8438C200.489 82.1778 201.688 80.6758 203.354 80.4889Z" fill="#60EFFF"/>
<path d="M204.22 84.3188C203.338 76.4652 196.257 70.8131 188.404 71.6943L193.481 116.94L194.782 116.794C201.917 115.994 207.052 109.561 206.252 102.426L204.22 84.3188Z" fill="#8F8F8F"/>
<path d="M121.513 185.231C169.705 179.823 204.389 136.371 198.981 88.1789C193.573 39.9864 150.122 5.30256 101.929 10.7104C53.7367 16.1183 19.0529 59.5699 24.4607 107.762C29.8686 155.955 73.3202 190.639 121.513 185.231Z" fill="#D9D9D9"/>
<path d="M101.93 10.7105C150.122 5.30277 193.573 39.9865 198.981 88.1787C203.497 128.418 180.061 165.35 144.15 179.593C147.782 166.622 150.897 152.2 153.317 136.191C170.544 22.2515 75.513 51.3917 25.6899 80.28C33.1366 44.0291 63.1627 15.0607 101.93 10.7105Z" fill="#F4F4F4"/>
<path d="M92.2708 177.386C54.6373 170.195 33.9604 135.601 31.9689 120.229C31.8206 110.831 31.1336 99.6678 40.3717 119.286C51.9193 143.808 70.1156 154.374 82.2031 159.747C95.5382 165.674 130.395 184.671 92.2708 177.386Z" fill="#B3B3B3"/>
<path d="M120.859 177.45C161.793 172.857 191.253 135.95 186.66 95.0161C182.066 54.0822 145.159 24.6224 104.225 29.2157C63.2914 33.8091 33.8315 70.7162 38.4249 111.65C43.0182 152.584 79.9253 182.044 120.859 177.45Z" fill="#2D2D2D"/>
<g filter="url(#filter0_d_143_378)">
<path d="M146.9 82.8964C133.573 84.3919 124.148 97.8976 125.85 113.062C126.07 115.019 126.466 116.908 127.014 118.711C134.194 116.904 142.376 115.335 151.513 114.309C160.341 113.319 167.869 113.083 174.237 113.312C174.364 111.464 174.328 109.568 174.112 107.646C172.411 92.482 160.228 81.4011 146.9 82.8964Z" fill="#60EFFF"/>
</g>
<g filter="url(#filter1_d_143_378)">
<path d="M77.5217 90.6816C90.849 89.1861 103.033 100.267 104.735 115.431C104.954 117.389 104.987 119.318 104.851 121.198C97.4499 121.028 89.1234 121.31 79.9859 122.336C71.1583 123.326 63.7652 124.765 57.6061 126.4C57.0725 124.626 56.6878 122.769 56.472 120.847C54.7704 105.683 64.1946 92.1773 77.5217 90.6816Z" fill="#60EFFF"/>
</g>
<path d="M159.016 65.5452C161.09 62.3594 153.799 53.9368 142.732 46.7326C131.665 39.5285 121.012 36.271 118.939 39.4568C116.865 42.6425 124.155 51.0652 135.222 58.2693C146.289 65.4735 156.942 68.731 159.016 65.5452Z" fill="#787878"/>
<path d="M169.062 74.0034C170.558 71.7042 169.791 68.5511 167.348 66.9607C164.905 65.3703 161.711 65.9449 160.214 68.244C158.718 70.5432 159.485 73.6963 161.928 75.2867C164.371 76.8771 167.565 76.3025 169.062 74.0034Z" fill="#787878"/>
<path d="M97.5412 267.657L69.25 263.339L61.5949 313.491L89.8861 317.81L97.5412 267.657Z" fill="#2D2D2D"/>
<path d="M67.6932 355.379C79.1179 357.472 91.073 344.465 94.3956 326.326C97.7182 308.188 91.1501 291.788 79.7254 289.695C68.3006 287.602 56.3456 300.609 53.023 318.748C49.7004 336.886 56.2685 353.287 67.6932 355.379Z" fill="#898989"/>
<path d="M67.6932 355.379C79.1179 357.472 91.073 344.465 94.3956 326.326C97.7182 308.188 91.1501 291.788 79.7254 289.695C68.3006 287.602 56.3456 300.609 53.023 318.748C49.7004 336.886 56.2685 353.287 67.6932 355.379Z" fill="#898989"/>
<path d="M87.3219 240.678C96.486 246.85 103.444 256.867 104.411 269.899C100.724 278.49 91.5875 283.855 81.9151 282.379C70.4334 280.626 62.5463 269.898 64.2989 258.416C66.0035 247.248 76.2 239.482 87.3219 240.678Z" fill="#AFAFAF"/>
<path d="M150.387 267.167L179.004 267.491L178.43 318.221L149.812 317.897L150.387 267.167Z" fill="#2D2D2D"/>
<path d="M165.622 358.567C154.01 358.78 144.321 344.007 143.982 325.57C143.643 307.133 152.782 292.014 164.395 291.801C176.008 291.587 185.697 306.36 186.036 324.797C186.375 343.234 177.235 358.353 165.622 358.567Z" fill="#898989"/>
<path d="M165.622 358.567C154.01 358.78 144.321 344.007 143.982 325.57C143.643 307.133 152.782 292.014 164.395 291.801C176.008 291.587 185.697 306.36 186.036 324.797C186.375 343.234 177.235 358.353 165.622 358.567Z" fill="#D9D9D9"/>
<path d="M164.843 242.201C154.8 246.805 146.311 255.563 143.244 268.265C145.49 277.341 153.636 284.115 163.42 284.226C175.034 284.358 184.555 275.05 184.687 263.435C184.815 252.139 176.012 242.823 164.843 242.201Z" fill="#D9D9D9"/>
<path d="M178.168 341.7C180.203 341.698 181.845 334.222 181.835 325.002C181.824 315.782 180.166 308.309 178.13 308.312C176.095 308.314 174.453 315.79 174.463 325.01C174.474 334.23 176.132 341.703 178.168 341.7Z" fill="#F0F0F0"/>
<path d="M178.762 269.481C180.797 269.479 182.444 266.037 182.439 261.793C182.434 257.549 180.78 254.11 178.744 254.113C176.709 254.115 175.062 257.557 175.067 261.801C175.072 266.045 176.726 269.483 178.762 269.481Z" fill="#F0F0F0"/>
<path d="M220.849 40.9987C233.537 39.1696 245.757 51.0979 248.141 67.6412C250.526 84.1845 242.173 99.0782 229.484 100.907C216.796 102.736 204.577 90.808 202.192 74.2647C199.807 57.7214 208.16 42.8277 220.849 40.9987Z" fill="#D9D9D9"/>
<path d="M229.485 100.908C240.611 99.3041 248.748 90.0578 249.351 79.2504L203.026 76.1492C202.899 77.8158 202.95 79.522 203.199 81.2451C205.028 93.9335 216.796 102.737 229.485 100.908Z" fill="#2D2D2D"/>
<path d="M253.556 93.5923C238.715 152.02 208.95 175.081 195.922 179.308C199.501 151.714 193.184 138.128 189.578 134.784L201.635 85.4165L253.556 93.5923Z" fill="#D9D9D9"/>
<path d="M241.086 101.649C243.647 102.674 241.963 112.909 237.323 124.511C232.683 136.113 226.845 144.687 224.284 143.663C221.722 142.639 223.407 132.403 228.047 120.801C232.687 109.2 238.524 100.625 241.086 101.649Z" fill="#F0F0F0"/>
<path d="M252.193 44.3207C252.382 43.7527 252.996 43.4454 253.564 43.6343C259.715 45.6796 263.265 51.5085 262.421 57.3919C262.336 57.9845 261.787 58.3959 261.194 58.3108C260.602 58.2258 260.19 57.6763 260.275 57.0837C260.964 52.2786 258.074 47.4187 252.879 45.6914C252.311 45.5025 252.004 44.8888 252.193 44.3207Z" fill="#7B7B7B"/>
<path d="M255.472 37.1979C255.763 36.2853 256.739 35.7817 257.651 36.0727C266.745 38.9732 272.083 47.284 270.816 55.7601C270.674 56.7073 269.791 57.3604 268.844 57.2189C267.897 57.0772 267.243 56.1942 267.385 55.2468C268.377 48.6114 264.225 41.8104 256.597 39.3774C255.684 39.0862 255.181 38.1104 255.472 37.1979Z" fill="#7B7B7B"/>
<path d="M205.717 35.6064C205.845 34.8995 205.375 34.2227 204.668 34.0948C199.658 33.1879 195.009 35.8093 193.426 40.1907C193.182 40.8663 193.532 41.6121 194.207 41.8563C194.883 42.1004 195.629 41.7504 195.873 41.0747C196.994 37.9723 200.353 35.9576 204.205 36.6549C204.912 36.7828 205.589 36.3133 205.717 35.6064Z" fill="#7B7B7B"/>
<path d="M206.032 28.8267C206.2 27.8837 205.573 26.9829 204.63 26.8143C196.806 25.4158 189.574 29.5508 187.1 36.3764C186.773 37.277 187.239 38.2716 188.14 38.598C189.04 38.9244 190.035 38.4593 190.361 37.5588C192.225 32.4181 197.753 29.1086 204.019 30.2287C204.962 30.3973 205.863 29.7697 206.032 28.8267Z" fill="#7B7B7B"/>
</g>
<defs>
<filter id="filter0_d_143_378" x="120.351" y="77.4612" width="59.2587" height="46.55" filterUnits="userSpaceOnUse" color-interpolation-filters="sRGB">
<feFlood flood-opacity="0" result="BackgroundImageFix"/>
<feColorMatrix in="SourceAlpha" type="matrix" values="0 0 0 0 0 0 0 0 0 0 0 0 0 0 0 0 0 0 127 0" result="hardAlpha"/>
<feOffset/>
<feGaussianBlur stdDeviation="2.65"/>
<feComposite in2="hardAlpha" operator="out"/>
<feColorMatrix type="matrix" values="0 0 0 0 0.376471 0 0 0 0 0.937255 0 0 0 0 1 0 0 0 1 0"/>
<feBlend mode="normal" in2="BackgroundImageFix" result="effect1_dropShadow_143_378"/>
<feBlend mode="normal" in="SourceGraphic" in2="effect1_dropShadow_143_378" result="shape"/>
</filter>
<filter id="filter1_d_143_378" x="50.9734" y="85.2464" width="59.2582" height="46.4535" filterUnits="userSpaceOnUse" color-interpolation-filters="sRGB">
<feFlood flood-opacity="0" result="BackgroundImageFix"/>
<feColorMatrix in="SourceAlpha" type="matrix" values="0 0 0 0 0 0 0 0 0 0 0 0 0 0 0 0 0 0 127 0" result="hardAlpha"/>
<feOffset/>
<feGaussianBlur stdDeviation="2.65"/>
<feComposite in2="hardAlpha" operator="out"/>
<feColorMatrix type="matrix" values="0 0 0 0 0.376471 0 0 0 0 0.937255 0 0 0 0 1 0 0 0 1 0"/>
<feBlend mode="normal" in2="BackgroundImageFix" result="effect1_dropShadow_143_378"/>
<feBlend mode="normal" in="SourceGraphic" in2="effect1_dropShadow_143_378" result="shape"/>
</filter>
<clipPath id="clip0_143_378">
<rect width="271" height="360" fill="white"/>
</clipPath>
</defs>
</svg>
