<svg viewBox="0 0 567 805" fill="none" xmlns="http://www.w3.org/2000/svg">
    <path d="M61 186H57C54.2386 186 52 188.239 52 191V238C52 240.761 54.2386 243 57 243H61C63.7614 243 66 240.761 66 238V191C66 188.239 63.7614 186 61 186Z" fill="#60EFFF"/>
    <path d="M58 177C58 168.716 64.7157 162 73 162H91V267H71C63.8203 267 58 261.18 58 254V177Z" fill="#8F8F8F"/>
    <path d="M490 186H494C496.761 186 499 188.239 499 191V238C499 240.761 496.761 243 494 243H490C487.239 243 485 240.761 485 238V191C485 188.239 487.239 186 490 186Z" fill="#60EFFF"/>
    <path d="M493 177C493 168.716 486.284 162 478 162H460V267H480C487.18 267 493 261.18 493 254V177Z" fill="#8F8F8F"/>
    <path d="M457 364H422V427H457V364Z" fill="#2D2D2D"/>
    <path d="M522.5 587C544.315 587 562 563.943 562 535.5C562 507.057 544.315 484 522.5 484C500.685 484 483 507.057 483 535.5C483 563.943 500.685 587 522.5 587Z" fill="#D9D9D9"/>
    <path d="M522.5 484C541.629 484 557.58 497.597 561.219 515.654L483.947 532.125C483.329 529.348 483 526.462 483 523.5C483 501.684 500.685 484 522.5 484Z" fill="#2D2D2D"/>
    <path d="M564.818 490.476C525.637 395.671 469.905 364.056 446.936 360.099C459.663 405.707 452.322 430.123 447.06 436.63L479.353 516.852L564.818 490.476Z" fill="#D9D9D9"/>
    <path d="M541.861 479.933C545.927 477.586 540.604 460.755 529.972 442.341C519.341 423.927 507.427 410.902 503.361 413.249C499.296 415.596 504.619 432.427 515.25 450.841C525.881 469.255 537.796 482.28 541.861 479.933Z" fill="#F0F0F0"/>
    <path d="M109.726 373H144.726V436H109.726V373Z" fill="#2D2D2D"/>
    <path d="M44.2256 596C22.4103 596 4.72559 572.943 4.72559 544.5C4.72559 516.057 22.4103 493 44.2256 493C66.0408 493 83.7256 516.057 83.7256 544.5C83.7256 572.943 66.0408 596 44.2256 596Z" fill="#AFAFAF"/>
    <path d="M44.2256 493C25.0968 493 9.14582 506.598 5.50684 524.654L82.7783 541.125C83.3967 538.349 83.7256 535.463 83.7256 532.5C83.7256 510.685 66.0408 493 44.2256 493Z" fill="#2D2D2D"/>
    <path d="M1.90723 499.477C41.0881 404.671 96.821 373.056 119.79 369.1C107.062 414.708 114.404 439.124 119.666 445.631L87.3724 525.853L1.90723 499.477Z" fill="#AFAFAF"/>
    <path d="M24.8644 488.934C20.7989 486.587 26.1217 469.756 36.7532 451.342C47.3846 432.928 59.2989 419.903 63.3644 422.25C67.4299 424.597 62.1071 441.428 51.4756 459.842C40.8441 478.256 28.9299 491.281 24.8644 488.934Z" fill="#C4C4C4"/>
    <g filter="url(#filter0_d_113_235)">
        <path d="M285.5 616C376.351 616 450 544.589 450 456.5C450 368.411 376.351 297 285.5 297C194.649 297 121 368.411 121 456.5C121 544.589 194.649 616 285.5 616Z" fill="#A8A8A8"/>
        <path d="M423 467C432.088 467 440.934 467.996 449.426 469.881C443.138 543.276 385.601 602.559 311.604 613.999C307.966 603.128 306 591.535 306 579.5C306 517.368 358.383 467 423 467ZM145 467C209.617 467 262 517.368 262 579.5C262 591.364 260.087 602.799 256.547 613.536C183.72 600.998 127.462 541.999 121.521 469.266C129.107 467.78 136.959 467 145 467Z" fill="#6B6B6B"/>
        <path d="M323 349.5H249C237.678 349.5 228.5 358.678 228.5 370V444C228.5 455.322 237.678 464.5 249 464.5H323C334.322 464.5 343.5 455.322 343.5 444V370C343.5 358.678 334.322 349.5 323 349.5Z" fill="#60EFFF" stroke="#848484" stroke-width="15"/>
        <path d="M277.502 405C389.34 405 480.002 314.338 480.002 202.5C480.002 90.6623 389.34 0 277.502 0C165.664 0 75.002 90.6623 75.002 202.5C75.002 314.338 165.664 405 277.502 405Z" fill="#D9D9D9"/>
        <path d="M277.502 0C389.34 0 480.002 90.6623 480.002 202.5C480.002 295.88 416.795 374.497 330.831 397.903C342.491 369.11 353.338 336.859 363.002 300.792C431.784 44.0952 206.498 86.439 84.8848 139.832C111.274 58.6676 187.537 0 277.502 0Z" fill="#F4F4F4"/>
        <path d="M212.502 379.5C128.103 353.341 89.6128 268.742 89.002 233C91.0789 211.424 92.3754 185.664 108.502 233C128.66 292.17 167.645 321.065 193.965 336.487C223.002 353.5 298.002 406 212.502 379.5Z" fill="#B3B3B3"/>
        <path d="M278.002 387C372.995 387 450.002 309.993 450.002 215C450.002 120.007 372.995 43 278.002 43C183.009 43 106.002 120.007 106.002 215C106.002 309.993 183.009 387 278.002 387Z" fill="#2D2D2D"/>
        <g filter="url(#filter1_d_113_235)">
            <path d="M362 177C331.072 177 306 205.528 306 240.719C306 245.261 306.419 249.692 307.213 253.966C324.132 251.671 343.288 250.178 364.494 250.178C384.98 250.178 402.294 251.572 416.83 253.735C417.597 249.533 418 245.18 418 240.719C418 205.528 392.928 177 362 177Z" fill="#60EFFF"/>
        </g>
        <g filter="url(#filter2_d_113_235)">
            <path d="M201 177C231.928 177 257 205.528 257 240.719C257 245.261 256.581 249.692 255.787 253.966C238.868 251.671 219.712 250.178 198.506 250.178C178.02 250.178 160.706 251.572 146.17 253.735C145.403 249.533 145 245.18 145 240.719C145 205.528 170.072 177 201 177Z" fill="#60EFFF"/>
        </g>
    </g>
    <path d="M394.229 140.35C399.801 133.582 385.259 112.404 361.748 93.0478C338.238 73.6914 314.661 63.4863 309.089 70.2541C303.517 77.0219 318.06 98.1998 341.57 117.556C365.081 136.913 388.657 147.118 394.229 140.35Z" fill="#787878"/>
    <path d="M415.077 162.318C419.098 157.434 418.15 150.01 412.96 145.737C407.77 141.464 400.302 141.96 396.281 146.844C392.26 151.728 393.208 159.152 398.398 163.425C403.588 167.698 411.055 167.203 415.077 162.318Z" fill="#787878"/>
    <path d="M231 592.95H165V709.95H231V592.95Z" fill="#2D2D2D"/>
    <path d="M193.478 803.323C220.252 804.118 242.981 770.305 244.244 727.797C245.507 685.29 224.826 650.186 198.052 649.391C171.278 648.595 148.549 682.409 147.286 724.916C146.023 767.424 166.704 802.527 193.478 803.323Z" fill="#898989"/>
    <path d="M193.478 803.323C220.252 804.118 242.981 770.305 244.244 727.797C245.507 685.29 224.826 650.186 198.052 649.391C171.278 648.595 148.549 682.409 147.286 724.916C146.023 767.424 166.704 802.527 193.478 803.323Z" fill="#898989"/>
    <path d="M198.312 535C221.353 545.88 240.705 566.294 247.446 595.667C242.03 616.539 223.066 631.95 200.5 631.95C173.714 631.95 152 610.236 152 583.45C152 557.397 172.542 536.144 198.312 535Z" fill="#AFAFAF"/>
    <path d="M336.446 589.95H402.446V706.95H336.446V589.95Z" fill="#2D2D2D"/>
    <path d="M373.968 800.322C347.194 801.118 324.466 767.304 323.203 724.797C321.94 682.29 342.62 647.186 369.394 646.39C396.168 645.595 418.897 679.409 420.16 721.916C421.423 764.423 400.742 799.527 373.968 800.322Z" fill="#898989"/>
    <path d="M373.968 800.322C347.194 801.118 324.466 767.304 323.203 724.797C321.94 682.29 342.62 647.186 369.394 646.39C396.168 645.595 418.897 679.409 420.16 721.916C421.423 764.423 400.742 799.527 373.968 800.322Z" fill="#D9D9D9"/>
    <path d="M369.134 532C346.094 542.88 326.741 563.294 320 592.667C325.416 613.539 344.38 628.95 366.946 628.95C393.732 628.95 415.446 607.236 415.446 580.45C415.446 554.397 394.904 533.144 369.134 532Z" fill="#D9D9D9"/>
    <path d="M402.458 761.1C407.152 761.042 410.743 743.759 410.478 722.497C410.214 701.236 406.194 684.048 401.5 684.106C396.806 684.165 393.215 701.448 393.48 722.709C393.744 743.97 397.764 761.159 402.458 761.1Z" fill="#F0F0F0"/>
    <path d="M401.941 594.545C406.635 594.486 410.341 586.506 410.219 576.719C410.097 566.933 406.193 559.047 401.499 559.106C396.805 559.164 393.099 567.145 393.221 576.931C393.342 586.717 397.246 594.603 401.941 594.545Z" fill="#F0F0F0"/>
    <defs>
        <filter id="filter0_d_113_235" x="71.002" y="0" width="413" height="624" filterUnits="userSpaceOnUse" color-interpolation-filters="sRGB">
            <feFlood flood-opacity="0" result="BackgroundImageFix"/>
            <feColorMatrix in="SourceAlpha" type="matrix" values="0 0 0 0 0 0 0 0 0 0 0 0 0 0 0 0 0 0 127 0" result="hardAlpha"/>
            <feOffset dy="4"/>
            <feGaussianBlur stdDeviation="2"/>
            <feComposite in2="hardAlpha" operator="out"/>
            <feColorMatrix type="matrix" values="0 0 0 0 0 0 0 0 0 0 0 0 0 0 0 0 0 0 0.25 0"/>
            <feBlend mode="normal" in2="BackgroundImageFix" result="effect1_dropShadow_113_235"/>
            <feBlend mode="normal" in="SourceGraphic" in2="effect1_dropShadow_113_235" result="shape"/>
        </filter>
        <filter id="filter1_d_113_235" x="300.7" y="171.7" width="122.6" height="87.5661" filterUnits="userSpaceOnUse" color-interpolation-filters="sRGB">
            <feFlood flood-opacity="0" result="BackgroundImageFix"/>
            <feColorMatrix in="SourceAlpha" type="matrix" values="0 0 0 0 0 0 0 0 0 0 0 0 0 0 0 0 0 0 127 0" result="hardAlpha"/>
            <feOffset/>
            <feGaussianBlur stdDeviation="2.65"/>
            <feComposite in2="hardAlpha" operator="out"/>
            <feColorMatrix type="matrix" values="0 0 0 0 0.376471 0 0 0 0 0.937255 0 0 0 0 1 0 0 0 1 0"/>
            <feBlend mode="normal" in2="BackgroundImageFix" result="effect1_dropShadow_113_235"/>
            <feBlend mode="normal" in="SourceGraphic" in2="effect1_dropShadow_113_235" result="shape"/>
        </filter>
        <filter id="filter2_d_113_235" x="139.7" y="171.7" width="122.6" height="87.5661" filterUnits="userSpaceOnUse" color-interpolation-filters="sRGB">
            <feFlood flood-opacity="0" result="BackgroundImageFix"/>
            <feColorMatrix in="SourceAlpha" type="matrix" values="0 0 0 0 0 0 0 0 0 0 0 0 0 0 0 0 0 0 127 0" result="hardAlpha"/>
            <feOffset/>
            <feGaussianBlur stdDeviation="2.65"/>
            <feComposite in2="hardAlpha" operator="out"/>
            <feColorMatrix type="matrix" values="0 0 0 0 0.376471 0 0 0 0 0.937255 0 0 0 0 1 0 0 0 1 0"/>
            <feBlend mode="normal" in2="BackgroundImageFix" result="effect1_dropShadow_113_235"/>
            <feBlend mode="normal" in="SourceGraphic" in2="effect1_dropShadow_113_235" result="shape"/>
        </filter>
    </defs>
</svg>
